<svg xmlns="http://www.w3.org/2000/svg" height="800" width="1200" viewBox="-32.9529 -37.535 285.5918 225.21"><path d="M33.652 65.694l-15.317-42.86h9.39L38.56 54.558l10.5-31.724h9.181l-15.348 42.86h-9.24zm29.937 0v-42.86h8.652v42.86zm18.671-42.86h15.817c3.562 0 6.276.27 8.152.82 2.514.738 4.67 2.055 6.456 3.95 1.796 1.887 3.165 4.202 4.101 6.937.93 2.743 1.398 6.116 1.398 10.137 0 3.524-.44 6.566-1.317 9.123-1.067 3.112-2.595 5.637-4.59 7.562-1.497 1.468-3.523 2.605-6.078 3.423-1.905.608-4.46.908-7.664.908H82.26zm8.651 7.255v28.38h6.457c2.415 0 4.162-.13 5.24-.408 1.396-.349 2.564-.938 3.491-1.775.93-.84 1.677-2.227 2.266-4.143.579-1.916.878-4.541.878-7.854 0-3.312-.3-5.847-.878-7.623-.59-1.777-1.407-3.164-2.455-4.152-1.057-.997-2.395-1.666-4.012-2.016-1.207-.279-3.572-.409-7.104-.409zm34.618 35.605v-42.86h27.033v7.255H134.18v9.5h16.776v7.215H134.18V58.47h19.2v7.225h-27.851zm32.19-21.165c0-4.37.65-8.032 1.957-10.997a20.353 20.353 0 013.991-5.876c1.688-1.728 3.533-3.015 5.539-3.853 2.675-1.137 5.748-1.696 9.24-1.696 6.316 0 11.366 1.956 15.158 5.877 3.792 3.912 5.688 9.36 5.688 16.335 0 6.925-1.886 12.334-5.648 16.247-3.762 3.902-8.792 5.857-15.078 5.857-6.377 0-11.446-1.946-15.207-5.827-3.763-3.893-5.64-9.252-5.64-16.067zm8.912-.29c0 4.85 1.128 8.533 3.364 11.038 2.245 2.504 5.089 3.751 8.541 3.751 3.444 0 6.278-1.236 8.493-3.732 2.205-2.484 3.312-6.207 3.312-11.175 0-4.91-1.077-8.573-3.222-10.998-2.155-2.415-5.02-3.622-8.583-3.622-3.572 0-6.446 1.227-8.632 3.672-2.174 2.445-3.273 6.128-3.273 11.066zM3.165 133.616c-1.48-9.679-1.694-9.7-2.517-34.89C-.016 78.371.198 78.703.19 78.361c-.457-21.73-.262-42.564 2.518-63.376.785-5.88 2.255-7.852 7.778-10.295 1.457-.645 1.459-.908 7.55-1.26 5.825-.335 5.785-.418 14.643-1.257C56.704-.1 80.534.001 104.52.001c32.163 0 64.212.087 96.322 2.63 7.966.632 13.936.988 15.558 11.326 2.972 18.949 3.108 39.009 3.204 59.258.019 4.232.171 8.47 0 12.699-1.201 29.292-.712 29.061-3.53 51.265-.134 1.047-5.17 6.292-6.539 7.19-2.93 1.927-3.243 1.66-8.693 2.173-49.144 4.637-98.398 4.024-146.657 2.404-13.074-.44-26.193-.939-39.124-2.86-7.197-1.07-8.274-3.046-10.524-8.122-1.81-4.084-1.322-4.008-1.373-4.348zm5.339-4.36c-1.405-8.96-1.609-8.98-2.39-32.294-.632-18.838-.428-18.53-.435-18.847-.433-20.112-.25-39.396 2.391-58.656.746-5.443 2.143-7.267 7.39-9.53 1.383-.597 1.386-.84 7.172-1.163 5.533-.313 5.495-.39 13.91-1.167 22.83-2.106 45.455-2.01 68.245-2.01 30.55 0 60.998.08 91.5 2.434 7.57.584 13.24.914 14.782 10.483 2.821 17.538 2.951 36.103 3.041 54.844.019 3.918.165 7.839 0 11.753-1.139 27.111-.694 26.873-3.369 47.426-.127.966-4.893 5.846-6.195 6.679-2.785 1.782-3.08 1.536-8.258 2.01-46.685 4.291-93.473 3.725-139.316 2.223-12.42-.404-24.882-.867-37.166-2.645-6.836-.99-7.86-2.819-9.998-7.519-1.718-3.778-1.254-3.709-1.304-4.022zM11.4 73.327h196.892v.117c.018 3.698.155 7.402 0 11.097-1.075 25.598-.345 25.683-2.872 45.088-.119.913-4.93 5.212-6.158 5.997-2.63 1.684-2.91 1.452-7.797 1.901-44.08 4.052-88.26 3.515-131.546 2.1-11.727-.385-23.493-.821-35.093-2.5-6.455-.934-7.42-2.66-9.44-7.099-1.622-3.567-1.184-3.502-1.23-3.797-1.328-8.46-1.52-8.477-2.258-30.494-.597-17.784-.403-17.495-.411-17.794a1052 1052 0 01-.087-4.616zm55.92 45.958v8.036H35.28c.338-3.035 1.314-5.913 2.963-8.634 1.64-2.72 4.885-6.324 9.717-10.82 3.907-3.623 6.292-6.092 7.174-7.385 1.187-1.785 1.786-3.549 1.786-5.293 0-1.923-.515-3.403-1.555-4.444-1.04-1.04-2.468-1.555-4.297-1.555-1.806 0-3.234.547-4.306 1.63-1.06 1.092-1.68 2.899-1.849 5.42l-8.613-.862c.515-4.758 2.121-8.172 4.831-10.253 2.711-2.07 6.093-3.108 10.158-3.108 4.455 0 7.952 1.207 10.495 3.603 2.541 2.404 3.812 5.388 3.812 8.959 0 2.027-.367 3.96-1.093 5.8-.724 1.837-1.88 3.759-3.455 5.765-1.05 1.335-2.942 3.257-5.662 5.756-2.731 2.502-4.465 4.172-5.189 4.99-.724.82-1.324 1.619-1.776 2.394H67.32zm20.195-36.838c4.897 0 8.713 1.566 11.462 4.685 3.277 3.688 4.92 9.81 4.92 18.37 0 8.531-1.655 14.665-4.956 18.405-2.725 3.08-6.529 4.612-11.426 4.612-4.898 0-8.856-1.682-11.862-5.063-3.006-3.373-4.51-9.392-4.51-18.047 0-8.498 1.656-14.61 4.956-18.34 2.724-3.077 6.53-4.622 11.416-4.622zm0 7.174a5.211 5.211 0 00-3.125.999c-.915.672-1.631 1.87-2.136 3.592-.657 2.237-1.861 5.998-1.861 11.29 0 5.296 1.162 8.932 1.754 10.906.595 1.985 1.351 3.297 2.255 3.959.916.65 1.95.989 3.113.989 1.174 0 2.22-.338 3.135-1.01.916-.662 1.63-1.86 2.137-3.583.655-2.215 1.86-5.965 1.86-11.26 0-5.293-1.16-8.93-1.754-10.913-.592-1.977-1.35-3.298-2.255-3.97-.916-.663-1.949-.999-3.123-.999zm39.205-7.174c4.9 0 8.715 1.566 11.464 4.685 3.278 3.688 4.921 9.81 4.921 18.37 0 8.531-1.656 14.665-4.957 18.405-2.724 3.08-6.529 4.612-11.428 4.612-4.897 0-8.853-1.682-11.86-5.063-3.006-3.373-4.51-9.392-4.51-18.047 0-8.498 1.655-14.61 4.957-18.34 2.723-3.077 6.528-4.622 11.414-4.622zm0 7.174a5.208 5.208 0 00-3.122.999c-.916.672-1.633 1.87-2.138 3.592-.657 2.237-1.86 5.998-1.86 11.29 0 5.296 1.164 8.932 1.755 10.906.594 1.985 1.35 3.297 2.255 3.959.915.65 1.95.989 3.11.989 1.175 0 2.222-.338 3.137-1.01.917-.662 1.63-1.86 2.138-3.583.654-2.215 1.86-5.965 1.86-11.26 0-5.293-1.16-8.93-1.755-10.913-.592-1.977-1.35-3.298-2.255-3.97-.916-.663-1.95-.999-3.125-.999zm39.64-7.174c4.897 0 8.714 1.566 11.462 4.685 3.277 3.688 4.921 9.81 4.921 18.37 0 8.531-1.655 14.665-4.956 18.405-2.725 3.08-6.53 4.612-11.428 4.612-4.899 0-8.856-1.682-11.861-5.063-3.006-3.373-4.51-9.392-4.51-18.047 0-8.498 1.656-14.61 4.956-18.34 2.725-3.077 6.529-4.622 11.415-4.622zm0 7.174a5.209 5.209 0 00-3.125.999c-.915.672-1.63 1.87-2.137 3.592-.656 2.237-1.86 5.998-1.86 11.29 0 5.296 1.162 8.932 1.754 10.906.596 1.985 1.351 3.297 2.256 3.959a5.24 5.24 0 003.111.989c1.174 0 2.221-.338 3.136-1.01.917-.662 1.63-1.86 2.138-3.583.655-2.215 1.86-5.965 1.86-11.26 0-5.293-1.161-8.93-1.755-10.913-.591-1.977-1.35-3.298-2.254-3.97-.916-.663-1.951-.999-3.125-.999" fill="#231f20" fill-rule="evenodd"/></svg>